<svg xmlns="http://www.w3.org/2000/svg" xmlns:xlink="http://www.w3.org/1999/xlink" width="350" zoomAndPan="magnify" viewBox="0 0 262.5 74.999997" height="100" preserveAspectRatio="xMidYMid meet" version="1.0"><defs><g/><clipPath id="e5312af5d7"><path d="M 0.347656 1.265625 L 262 1.265625 L 262 73.726562 L 0.347656 73.726562 Z M 0.347656 1.265625 " clip-rule="nonzero"/></clipPath><clipPath id="45d4c092f4"><path d="M 7.109375 8.074219 L 131.566406 8.074219 L 131.566406 66.925781 L 7.109375 66.925781 Z M 7.109375 8.074219 " clip-rule="nonzero"/></clipPath></defs><g clip-path="url(#e5312af5d7)"><path stroke-linecap="butt" transform="matrix(0.748574, 0, 0, 0.748574, 0.34821, 1.265395)" fill="none" stroke-linejoin="miter" d="M -0.000739333 0.000307178 L 351.469553 0.000307178 L 351.469553 96.798922 L -0.000739333 96.798922 Z M -0.000739333 0.000307178 " stroke="#ffffff" stroke-width="6" stroke-opacity="1" stroke-miterlimit="4"/></g><g clip-path="url(#45d4c092f4)"><path fill="#ffffff" d="M 7.109375 8.074219 L 131.472656 8.074219 L 131.472656 66.925781 L 7.109375 66.925781 Z M 7.109375 8.074219 " fill-opacity="1" fill-rule="nonzero"/></g><g fill="#000000" fill-opacity="1"><g transform="translate(17.680029, 43.673331)"><g><path d="M 7.328125 0.25 C 6.046875 0.25 4.910156 -0.0234375 3.921875 -0.578125 C 2.929688 -1.140625 2.160156 -1.914062 1.609375 -2.90625 C 1.054688 -3.894531 0.78125 -5.035156 0.78125 -6.328125 C 0.78125 -7.617188 1.054688 -8.757812 1.609375 -9.75 C 2.160156 -10.738281 2.925781 -11.515625 3.90625 -12.078125 C 4.894531 -12.640625 6.03125 -12.921875 7.3125 -12.921875 C 8.382812 -12.921875 9.363281 -12.710938 10.25 -12.296875 C 11.144531 -11.890625 11.894531 -11.3125 12.5 -10.5625 C 13.113281 -9.8125 13.539062 -8.929688 13.78125 -7.921875 L 10.8125 -7.921875 C 10.570312 -8.617188 10.144531 -9.171875 9.53125 -9.578125 C 8.914062 -9.984375 8.207031 -10.1875 7.40625 -10.1875 C 6.6875 -10.1875 6.046875 -10.019531 5.484375 -9.6875 C 4.929688 -9.363281 4.492188 -8.910156 4.171875 -8.328125 C 3.859375 -7.753906 3.703125 -7.085938 3.703125 -6.328125 C 3.703125 -5.566406 3.859375 -4.894531 4.171875 -4.3125 C 4.492188 -3.738281 4.929688 -3.289062 5.484375 -2.96875 C 6.035156 -2.644531 6.664062 -2.484375 7.375 -2.484375 C 8.207031 -2.484375 8.9375 -2.695312 9.5625 -3.125 C 10.195312 -3.550781 10.644531 -4.125 10.90625 -4.84375 L 13.875 -4.84375 C 13.675781 -3.820312 13.265625 -2.925781 12.640625 -2.15625 C 12.023438 -1.394531 11.265625 -0.800781 10.359375 -0.375 C 9.453125 0.0390625 8.441406 0.25 7.328125 0.25 Z M 7.328125 0.25 "/></g></g></g><g fill="#000000" fill-opacity="1"><g transform="translate(33.64845, 43.673331)"><g><path d="M 7.53125 0.25 C 6.21875 0.25 5.050781 -0.0234375 4.03125 -0.578125 C 3.007812 -1.140625 2.210938 -1.914062 1.640625 -2.90625 C 1.066406 -3.894531 0.78125 -5.035156 0.78125 -6.328125 C 0.78125 -7.617188 1.066406 -8.757812 1.640625 -9.75 C 2.210938 -10.738281 3.007812 -11.515625 4.03125 -12.078125 C 5.050781 -12.640625 6.21875 -12.921875 7.53125 -12.921875 C 8.851562 -12.921875 10.019531 -12.640625 11.03125 -12.078125 C 12.050781 -11.515625 12.847656 -10.738281 13.421875 -9.75 C 14.003906 -8.757812 14.296875 -7.617188 14.296875 -6.328125 C 14.296875 -5.035156 14.003906 -3.894531 13.421875 -2.90625 C 12.847656 -1.914062 12.050781 -1.140625 11.03125 -0.578125 C 10.019531 -0.0234375 8.851562 0.25 7.53125 0.25 Z M 3.703125 -6.328125 C 3.703125 -5.566406 3.863281 -4.894531 4.1875 -4.3125 C 4.519531 -3.738281 4.972656 -3.289062 5.546875 -2.96875 C 6.117188 -2.644531 6.78125 -2.484375 7.53125 -2.484375 C 8.289062 -2.484375 8.957031 -2.644531 9.53125 -2.96875 C 10.101562 -3.289062 10.546875 -3.738281 10.859375 -4.3125 C 11.179688 -4.894531 11.34375 -5.566406 11.34375 -6.328125 C 11.34375 -7.085938 11.179688 -7.753906 10.859375 -8.328125 C 10.546875 -8.910156 10.101562 -9.363281 9.53125 -9.6875 C 8.957031 -10.019531 8.289062 -10.1875 7.53125 -10.1875 C 6.78125 -10.1875 6.117188 -10.019531 5.546875 -9.6875 C 4.972656 -9.363281 4.519531 -8.910156 4.1875 -8.328125 C 3.863281 -7.753906 3.703125 -7.085938 3.703125 -6.328125 Z M 3.703125 -6.328125 "/></g></g></g><g fill="#000000" fill-opacity="1"><g transform="translate(50.087025, 43.673331)"><g><path d="M 1.515625 0 L 1.515625 -12.671875 L 3.96875 -12.671875 L 9.546875 -4.953125 L 9.546875 -12.671875 L 12.40625 -12.671875 L 12.40625 0 L 9.96875 0 L 4.375 -7.765625 L 4.375 0 Z M 1.515625 0 "/></g></g></g><g fill="#000000" fill-opacity="1"><g transform="translate(65.386383, 43.673331)"><g><path d="M 1.515625 0 L 1.515625 -12.671875 L 3.96875 -12.671875 L 9.546875 -4.953125 L 9.546875 -12.671875 L 12.40625 -12.671875 L 12.40625 0 L 9.96875 0 L 4.375 -7.765625 L 4.375 0 Z M 1.515625 0 "/></g></g></g><g fill="#000000" fill-opacity="1"><g transform="translate(80.685741, 43.673331)"><g><path d="M 1.515625 0 L 1.515625 -12.671875 L 9.84375 -12.671875 L 9.84375 -10.234375 L 4.375 -10.234375 L 4.375 -7.625 L 9.359375 -7.625 L 9.359375 -5.21875 L 4.375 -5.21875 L 4.375 -2.4375 L 10.046875 -2.4375 L 10.046875 0 Z M 1.515625 0 "/></g></g></g><g fill="#000000" fill-opacity="1"><g transform="translate(93.01952, 43.673331)"><g><path d="M 7.328125 0.25 C 6.046875 0.25 4.910156 -0.0234375 3.921875 -0.578125 C 2.929688 -1.140625 2.160156 -1.914062 1.609375 -2.90625 C 1.054688 -3.894531 0.78125 -5.035156 0.78125 -6.328125 C 0.78125 -7.617188 1.054688 -8.757812 1.609375 -9.75 C 2.160156 -10.738281 2.925781 -11.515625 3.90625 -12.078125 C 4.894531 -12.640625 6.03125 -12.921875 7.3125 -12.921875 C 8.382812 -12.921875 9.363281 -12.710938 10.25 -12.296875 C 11.144531 -11.890625 11.894531 -11.3125 12.5 -10.5625 C 13.113281 -9.8125 13.539062 -8.929688 13.78125 -7.921875 L 10.8125 -7.921875 C 10.570312 -8.617188 10.144531 -9.171875 9.53125 -9.578125 C 8.914062 -9.984375 8.207031 -10.1875 7.40625 -10.1875 C 6.6875 -10.1875 6.046875 -10.019531 5.484375 -9.6875 C 4.929688 -9.363281 4.492188 -8.910156 4.171875 -8.328125 C 3.859375 -7.753906 3.703125 -7.085938 3.703125 -6.328125 C 3.703125 -5.566406 3.859375 -4.894531 4.171875 -4.3125 C 4.492188 -3.738281 4.929688 -3.289062 5.484375 -2.96875 C 6.035156 -2.644531 6.664062 -2.484375 7.375 -2.484375 C 8.207031 -2.484375 8.9375 -2.695312 9.5625 -3.125 C 10.195312 -3.550781 10.644531 -4.125 10.90625 -4.84375 L 13.875 -4.84375 C 13.675781 -3.820312 13.265625 -2.925781 12.640625 -2.15625 C 12.023438 -1.394531 11.265625 -0.800781 10.359375 -0.375 C 9.453125 0.0390625 8.441406 0.25 7.328125 0.25 Z M 7.328125 0.25 "/></g></g></g><g fill="#000000" fill-opacity="1"><g transform="translate(108.987944, 43.673331)"><g><path d="M 4.5625 0 L 4.5625 -9.96875 L 0.546875 -9.96875 L 0.546875 -12.671875 L 11.453125 -12.671875 L 11.453125 -9.96875 L 7.4375 -9.96875 L 7.4375 0 Z M 4.5625 0 "/></g></g></g><g fill="#ffffff" fill-opacity="1"><g transform="translate(137.318493, 43.140765)"><g><path d="M 4.875 0 L 4.875 -10.359375 L 0.5625 -10.359375 L 0.5625 -14.140625 L 13.234375 -14.140625 L 13.234375 -10.359375 L 8.9375 -10.359375 L 8.9375 0 Z M 4.875 0 "/></g></g></g><g fill="#ffffff" fill-opacity="1"><g transform="translate(151.114994, 43.140765)"><g><path d="M 8.390625 0.296875 C 7.253906 0.296875 6.21875 0.117188 5.28125 -0.234375 C 4.34375 -0.585938 3.53125 -1.09375 2.84375 -1.75 C 2.15625 -2.414062 1.625 -3.195312 1.25 -4.09375 C 0.875 -5 0.6875 -5.992188 0.6875 -7.078125 C 0.6875 -8.148438 0.875 -9.132812 1.25 -10.03125 C 1.625 -10.9375 2.15625 -11.71875 2.84375 -12.375 C 3.53125 -13.039062 4.34375 -13.550781 5.28125 -13.90625 C 6.21875 -14.257812 7.253906 -14.4375 8.390625 -14.4375 C 9.515625 -14.4375 10.546875 -14.257812 11.484375 -13.90625 C 12.421875 -13.550781 13.234375 -13.039062 13.921875 -12.375 C 14.609375 -11.71875 15.140625 -10.9375 15.515625 -10.03125 C 15.890625 -9.132812 16.078125 -8.148438 16.078125 -7.078125 C 16.078125 -5.992188 15.890625 -5 15.515625 -4.09375 C 15.140625 -3.195312 14.609375 -2.414062 13.921875 -1.75 C 13.234375 -1.09375 12.421875 -0.585938 11.484375 -0.234375 C 10.546875 0.117188 9.515625 0.296875 8.390625 0.296875 Z M 4.828125 -7.078125 C 4.828125 -6.367188 4.976562 -5.742188 5.28125 -5.203125 C 5.582031 -4.660156 6.003906 -4.234375 6.546875 -3.921875 C 7.085938 -3.617188 7.703125 -3.46875 8.390625 -3.46875 C 9.085938 -3.46875 9.703125 -3.617188 10.234375 -3.921875 C 10.765625 -4.234375 11.179688 -4.660156 11.484375 -5.203125 C 11.785156 -5.742188 11.9375 -6.367188 11.9375 -7.078125 C 11.9375 -7.785156 11.785156 -8.410156 11.484375 -8.953125 C 11.179688 -9.492188 10.765625 -9.914062 10.234375 -10.21875 C 9.703125 -10.519531 9.085938 -10.671875 8.390625 -10.671875 C 7.703125 -10.671875 7.085938 -10.519531 6.546875 -10.21875 C 6.003906 -9.914062 5.582031 -9.492188 5.28125 -8.953125 C 4.976562 -8.410156 4.828125 -7.785156 4.828125 -7.078125 Z M 4.828125 -7.078125 "/></g></g></g><g fill="#ffffff" fill-opacity="1"><g transform="translate(167.901086, 43.140765)"><g><path d="M 8.25 0.296875 C 6.75 0.296875 5.429688 -0.0078125 4.296875 -0.625 C 3.160156 -1.25 2.273438 -2.113281 1.640625 -3.21875 C 1.003906 -4.332031 0.6875 -5.617188 0.6875 -7.078125 C 0.6875 -8.523438 1.003906 -9.800781 1.640625 -10.90625 C 2.273438 -12.007812 3.148438 -12.875 4.265625 -13.5 C 5.390625 -14.125 6.695312 -14.4375 8.1875 -14.4375 C 9.382812 -14.4375 10.476562 -14.226562 11.46875 -13.8125 C 12.46875 -13.394531 13.3125 -12.8125 14 -12.0625 C 14.695312 -11.3125 15.179688 -10.414062 15.453125 -9.375 L 11.109375 -9.375 C 10.835938 -9.820312 10.445312 -10.171875 9.9375 -10.421875 C 9.4375 -10.679688 8.875 -10.8125 8.25 -10.8125 C 7.539062 -10.8125 6.921875 -10.648438 6.390625 -10.328125 C 5.859375 -10.015625 5.441406 -9.578125 5.140625 -9.015625 C 4.847656 -8.460938 4.703125 -7.816406 4.703125 -7.078125 C 4.703125 -6.359375 4.84375 -5.710938 5.125 -5.140625 C 5.414062 -4.578125 5.828125 -4.132812 6.359375 -3.8125 C 6.890625 -3.488281 7.53125 -3.328125 8.28125 -3.328125 C 9.09375 -3.328125 9.769531 -3.507812 10.3125 -3.875 C 10.851562 -4.25 11.226562 -4.734375 11.4375 -5.328125 L 7.53125 -5.328125 L 7.53125 -8.203125 L 15.71875 -8.203125 C 15.820312 -6.960938 15.722656 -5.820312 15.421875 -4.78125 C 15.117188 -3.75 14.632812 -2.851562 13.96875 -2.09375 C 13.300781 -1.332031 12.484375 -0.742188 11.515625 -0.328125 C 10.546875 0.0859375 9.457031 0.296875 8.25 0.296875 Z M 8.25 0.296875 "/></g></g></g><g fill="#ffffff" fill-opacity="1"><g transform="translate(184.303376, 43.140765)"><g><path d="M 1.5 0 L 1.5 -14.140625 L 11.1875 -14.140625 L 11.1875 -10.84375 L 5.53125 -10.84375 L 5.53125 -8.78125 L 10.640625 -8.78125 L 10.640625 -5.515625 L 5.53125 -5.515625 L 5.53125 -3.328125 L 11.421875 -3.328125 L 11.421875 0 Z M 1.5 0 "/></g></g></g><g fill="#ffffff" fill-opacity="1"><g transform="translate(196.625287, 43.140765)"><g><path d="M 4.875 0 L 4.875 -10.359375 L 0.5625 -10.359375 L 0.5625 -14.140625 L 13.234375 -14.140625 L 13.234375 -10.359375 L 8.9375 -10.359375 L 8.9375 0 Z M 4.875 0 "/></g></g></g><g fill="#ffffff" fill-opacity="1"><g transform="translate(210.421788, 43.140765)"><g><path d="M 9.9375 0 L 9.9375 -5.3125 L 5.578125 -5.3125 L 5.578125 0 L 1.5 0 L 1.5 -14.140625 L 5.578125 -14.140625 L 5.578125 -9.078125 L 9.9375 -9.078125 L 9.9375 -14.140625 L 14.015625 -14.140625 L 14.015625 0 Z M 9.9375 0 "/></g></g></g><g fill="#ffffff" fill-opacity="1"><g transform="translate(225.935283, 43.140765)"><g><path d="M 1.5 0 L 1.5 -14.140625 L 11.1875 -14.140625 L 11.1875 -10.84375 L 5.53125 -10.84375 L 5.53125 -8.78125 L 10.640625 -8.78125 L 10.640625 -5.515625 L 5.53125 -5.515625 L 5.53125 -3.328125 L 11.421875 -3.328125 L 11.421875 0 Z M 1.5 0 "/></g></g></g><g fill="#ffffff" fill-opacity="1"><g transform="translate(238.257195, 43.140765)"><g><path d="M 1.5 0 L 1.5 -14.140625 L 7.9375 -14.140625 C 9.082031 -14.140625 10.066406 -13.929688 10.890625 -13.515625 C 11.722656 -13.109375 12.363281 -12.523438 12.8125 -11.765625 C 13.269531 -11.015625 13.5 -10.117188 13.5 -9.078125 C 13.5 -8.085938 13.296875 -7.222656 12.890625 -6.484375 C 12.484375 -5.753906 11.90625 -5.179688 11.15625 -4.765625 L 13.765625 0 L 9.125 0 L 7.109375 -4.015625 L 5.578125 -4.015625 L 5.578125 0 Z M 5.5 -7.265625 L 7.390625 -7.265625 C 8.035156 -7.265625 8.53125 -7.421875 8.875 -7.734375 C 9.21875 -8.046875 9.390625 -8.484375 9.390625 -9.046875 C 9.390625 -9.617188 9.21875 -10.054688 8.875 -10.359375 C 8.53125 -10.660156 8.035156 -10.8125 7.390625 -10.8125 L 5.5 -10.8125 Z M 5.5 -7.265625 "/></g></g></g></svg>