<svg xmlns="http://www.w3.org/2000/svg" xmlns:xlink="http://www.w3.org/1999/xlink" width="350" zoomAndPan="magnify" viewBox="0 0 262.5 74.999997" height="100" preserveAspectRatio="xMidYMid meet" version="1.0"><defs><g/><clipPath id="c7e85965f6"><path d="M 0 0.0703125 L 262 0.0703125 L 262 74.925781 L 0 74.925781 Z M 0 0.0703125 " clip-rule="nonzero"/></clipPath><clipPath id="3e285027f1"><path d="M 0 1.265625 L 262 1.265625 L 262 73.664062 L 0 73.664062 Z M 0 1.265625 " clip-rule="nonzero"/></clipPath><clipPath id="436de38fa7"><path d="M 6.375 8.074219 L 130.832031 8.074219 L 130.832031 66.925781 L 6.375 66.925781 Z M 6.375 8.074219 " clip-rule="nonzero"/></clipPath></defs><g clip-path="url(#c7e85965f6)"><path fill="#ffffff" d="M 0 0.0703125 L 262 0.0703125 L 262 74.929688 L 0 74.929688 Z M 0 0.0703125 " fill-opacity="1" fill-rule="nonzero"/><path fill="#ffffff" d="M 0 0.0703125 L 262 0.0703125 L 262 74.929688 L 0 74.929688 Z M 0 0.0703125 " fill-opacity="1" fill-rule="nonzero"/></g><g clip-path="url(#3e285027f1)"><path stroke-linecap="butt" transform="matrix(0.754146, 0, 0, 0.754146, -0.734572, 1.266231)" fill="none" stroke-linejoin="miter" d="M 0.000261117 -0.000803036 L 348.904641 -0.000803036 L 348.904641 96.092933 L 0.000261117 96.092933 Z M 0.000261117 -0.000803036 " stroke="#000000" stroke-width="5.955667" stroke-opacity="1" stroke-miterlimit="4"/></g><g clip-path="url(#436de38fa7)"><path fill="#000000" d="M 6.375 8.074219 L 130.738281 8.074219 L 130.738281 66.925781 L 6.375 66.925781 Z M 6.375 8.074219 " fill-opacity="1" fill-rule="nonzero"/></g><g fill="#ffffff" fill-opacity="1"><g transform="translate(17.183999, 43.807071)"><g><path d="M 7.453125 0.234375 C 6.523438 0.234375 5.664062 0.0703125 4.875 -0.25 C 4.09375 -0.570312 3.414062 -1.023438 2.84375 -1.609375 C 2.269531 -2.203125 1.828125 -2.898438 1.515625 -3.703125 C 1.203125 -4.503906 1.046875 -5.378906 1.046875 -6.328125 C 1.046875 -7.285156 1.203125 -8.164062 1.515625 -8.96875 C 1.828125 -9.769531 2.269531 -10.460938 2.84375 -11.046875 C 3.414062 -11.628906 4.09375 -12.082031 4.875 -12.40625 C 5.664062 -12.738281 6.523438 -12.90625 7.453125 -12.90625 C 8.453125 -12.90625 9.367188 -12.71875 10.203125 -12.34375 C 11.046875 -11.976562 11.765625 -11.453125 12.359375 -10.765625 C 12.960938 -10.085938 13.398438 -9.285156 13.671875 -8.359375 L 11.984375 -8.359375 C 11.648438 -9.273438 11.082031 -9.992188 10.28125 -10.515625 C 9.476562 -11.046875 8.554688 -11.3125 7.515625 -11.3125 C 6.566406 -11.3125 5.726562 -11.097656 5 -10.671875 C 4.28125 -10.253906 3.710938 -9.671875 3.296875 -8.921875 C 2.878906 -8.171875 2.671875 -7.304688 2.671875 -6.328125 C 2.671875 -5.359375 2.878906 -4.5 3.296875 -3.75 C 3.710938 -3 4.28125 -2.410156 5 -1.984375 C 5.726562 -1.566406 6.566406 -1.359375 7.515625 -1.359375 C 8.585938 -1.359375 9.535156 -1.632812 10.359375 -2.1875 C 11.191406 -2.738281 11.773438 -3.492188 12.109375 -4.453125 L 13.78125 -4.453125 C 13.53125 -3.515625 13.097656 -2.691406 12.484375 -1.984375 C 11.878906 -1.285156 11.144531 -0.738281 10.28125 -0.34375 C 9.425781 0.0390625 8.484375 0.234375 7.453125 0.234375 Z M 7.453125 0.234375 "/></g></g></g><g fill="#ffffff" fill-opacity="1"><g transform="translate(33.328754, 43.807071)"><g><path d="M 7.59375 0.234375 C 6.320312 0.234375 5.191406 -0.046875 4.203125 -0.609375 C 3.210938 -1.171875 2.4375 -1.945312 1.875 -2.9375 C 1.320312 -3.925781 1.046875 -5.054688 1.046875 -6.328125 C 1.046875 -7.617188 1.320312 -8.753906 1.875 -9.734375 C 2.4375 -10.722656 3.210938 -11.5 4.203125 -12.0625 C 5.191406 -12.625 6.320312 -12.90625 7.59375 -12.90625 C 8.882812 -12.90625 10.019531 -12.625 11 -12.0625 C 11.988281 -11.5 12.765625 -10.722656 13.328125 -9.734375 C 13.890625 -8.753906 14.171875 -7.617188 14.171875 -6.328125 C 14.171875 -5.054688 13.890625 -3.925781 13.328125 -2.9375 C 12.765625 -1.945312 11.988281 -1.171875 11 -0.609375 C 10.019531 -0.046875 8.882812 0.234375 7.59375 0.234375 Z M 2.671875 -6.328125 C 2.671875 -5.359375 2.878906 -4.5 3.296875 -3.75 C 3.710938 -3 4.289062 -2.410156 5.03125 -1.984375 C 5.78125 -1.566406 6.632812 -1.359375 7.59375 -1.359375 C 8.570312 -1.359375 9.425781 -1.566406 10.15625 -1.984375 C 10.894531 -2.410156 11.472656 -3 11.890625 -3.75 C 12.304688 -4.5 12.515625 -5.359375 12.515625 -6.328125 C 12.515625 -7.316406 12.304688 -8.179688 11.890625 -8.921875 C 11.472656 -9.671875 10.894531 -10.253906 10.15625 -10.671875 C 9.425781 -11.097656 8.570312 -11.3125 7.59375 -11.3125 C 6.632812 -11.3125 5.78125 -11.097656 5.03125 -10.671875 C 4.289062 -10.253906 3.710938 -9.671875 3.296875 -8.921875 C 2.878906 -8.179688 2.671875 -7.316406 2.671875 -6.328125 Z M 2.671875 -6.328125 "/></g></g></g><g fill="#ffffff" fill-opacity="1"><g transform="translate(49.9079, 43.807071)"><g><path d="M 1.84375 0 L 1.84375 -12.671875 L 3.34375 -12.671875 L 10.34375 -2.75 L 10.34375 -12.671875 L 11.90625 -12.671875 L 11.90625 0 L 10.421875 0 L 3.421875 -9.921875 L 3.421875 0 Z M 1.84375 0 "/></g></g></g><g fill="#ffffff" fill-opacity="1"><g transform="translate(65.039089, 43.807071)"><g><path d="M 1.84375 0 L 1.84375 -12.671875 L 3.34375 -12.671875 L 10.34375 -2.75 L 10.34375 -12.671875 L 11.90625 -12.671875 L 11.90625 0 L 10.421875 0 L 3.421875 -9.921875 L 3.421875 0 Z M 1.84375 0 "/></g></g></g><g fill="#ffffff" fill-opacity="1"><g transform="translate(80.170274, 43.807071)"><g><path d="M 1.84375 0 L 1.84375 -12.671875 L 9.53125 -12.671875 L 9.53125 -11.1875 L 3.4375 -11.1875 L 3.4375 -7.1875 L 9.078125 -7.1875 L 9.078125 -5.71875 L 3.4375 -5.71875 L 3.4375 -1.484375 L 9.734375 -1.484375 L 9.734375 0 Z M 1.84375 0 "/></g></g></g><g fill="#ffffff" fill-opacity="1"><g transform="translate(92.459843, 43.807071)"><g><path d="M 7.453125 0.234375 C 6.523438 0.234375 5.664062 0.0703125 4.875 -0.25 C 4.09375 -0.570312 3.414062 -1.023438 2.84375 -1.609375 C 2.269531 -2.203125 1.828125 -2.898438 1.515625 -3.703125 C 1.203125 -4.503906 1.046875 -5.378906 1.046875 -6.328125 C 1.046875 -7.285156 1.203125 -8.164062 1.515625 -8.96875 C 1.828125 -9.769531 2.269531 -10.460938 2.84375 -11.046875 C 3.414062 -11.628906 4.09375 -12.082031 4.875 -12.40625 C 5.664062 -12.738281 6.523438 -12.90625 7.453125 -12.90625 C 8.453125 -12.90625 9.367188 -12.71875 10.203125 -12.34375 C 11.046875 -11.976562 11.765625 -11.453125 12.359375 -10.765625 C 12.960938 -10.085938 13.398438 -9.285156 13.671875 -8.359375 L 11.984375 -8.359375 C 11.648438 -9.273438 11.082031 -9.992188 10.28125 -10.515625 C 9.476562 -11.046875 8.554688 -11.3125 7.515625 -11.3125 C 6.566406 -11.3125 5.726562 -11.097656 5 -10.671875 C 4.28125 -10.253906 3.710938 -9.671875 3.296875 -8.921875 C 2.878906 -8.171875 2.671875 -7.304688 2.671875 -6.328125 C 2.671875 -5.359375 2.878906 -4.5 3.296875 -3.75 C 3.710938 -3 4.28125 -2.410156 5 -1.984375 C 5.726562 -1.566406 6.566406 -1.359375 7.515625 -1.359375 C 8.585938 -1.359375 9.535156 -1.632812 10.359375 -2.1875 C 11.191406 -2.738281 11.773438 -3.492188 12.109375 -4.453125 L 13.78125 -4.453125 C 13.53125 -3.515625 13.097656 -2.691406 12.484375 -1.984375 C 11.878906 -1.285156 11.144531 -0.738281 10.28125 -0.34375 C 9.425781 0.0390625 8.484375 0.234375 7.453125 0.234375 Z M 7.453125 0.234375 "/></g></g></g><g fill="#ffffff" fill-opacity="1"><g transform="translate(108.604596, 43.807071)"><g><path d="M 4.90625 0 L 4.90625 -11.140625 L 0.609375 -11.140625 L 0.609375 -12.671875 L 10.765625 -12.671875 L 10.765625 -11.140625 L 6.5 -11.140625 L 6.5 0 Z M 4.90625 0 "/></g></g></g><g fill="#000000" fill-opacity="1"><g transform="translate(136.182192, 43.355883)"><g><path d="M 5.109375 0 L 5.109375 -10.875 L 0.59375 -10.875 L 0.59375 -14.84375 L 13.890625 -14.84375 L 13.890625 -10.875 L 9.375 -10.875 L 9.375 0 Z M 5.109375 0 "/></g></g></g><g fill="#000000" fill-opacity="1"><g transform="translate(150.660789, 43.355883)"><g><path d="M 8.796875 0.3125 C 7.609375 0.3125 6.523438 0.125 5.546875 -0.25 C 4.566406 -0.625 3.710938 -1.15625 2.984375 -1.84375 C 2.265625 -2.539062 1.707031 -3.359375 1.3125 -4.296875 C 0.914062 -5.242188 0.71875 -6.285156 0.71875 -7.421875 C 0.71875 -8.554688 0.914062 -9.59375 1.3125 -10.53125 C 1.707031 -11.476562 2.265625 -12.296875 2.984375 -12.984375 C 3.710938 -13.679688 4.566406 -14.21875 5.546875 -14.59375 C 6.523438 -14.96875 7.609375 -15.15625 8.796875 -15.15625 C 9.984375 -15.15625 11.066406 -14.96875 12.046875 -14.59375 C 13.035156 -14.21875 13.890625 -13.679688 14.609375 -12.984375 C 15.328125 -12.296875 15.882812 -11.476562 16.28125 -10.53125 C 16.675781 -9.59375 16.875 -8.554688 16.875 -7.421875 C 16.875 -6.285156 16.675781 -5.242188 16.28125 -4.296875 C 15.882812 -3.359375 15.328125 -2.539062 14.609375 -1.84375 C 13.890625 -1.15625 13.035156 -0.625 12.046875 -0.25 C 11.066406 0.125 9.984375 0.3125 8.796875 0.3125 Z M 5.0625 -7.421875 C 5.0625 -6.679688 5.21875 -6.023438 5.53125 -5.453125 C 5.851562 -4.878906 6.296875 -4.429688 6.859375 -4.109375 C 7.429688 -3.796875 8.078125 -3.640625 8.796875 -3.640625 C 9.535156 -3.640625 10.179688 -3.796875 10.734375 -4.109375 C 11.296875 -4.429688 11.734375 -4.878906 12.046875 -5.453125 C 12.367188 -6.023438 12.53125 -6.679688 12.53125 -7.421875 C 12.53125 -8.171875 12.367188 -8.828125 12.046875 -9.390625 C 11.734375 -9.953125 11.296875 -10.390625 10.734375 -10.703125 C 10.179688 -11.023438 9.535156 -11.1875 8.796875 -11.1875 C 8.078125 -11.1875 7.429688 -11.023438 6.859375 -10.703125 C 6.296875 -10.390625 5.851562 -9.953125 5.53125 -9.390625 C 5.21875 -8.828125 5.0625 -8.171875 5.0625 -7.421875 Z M 5.0625 -7.421875 "/></g></g></g><g fill="#000000" fill-opacity="1"><g transform="translate(168.276776, 43.355883)"><g><path d="M 8.65625 0.3125 C 7.082031 0.3125 5.695312 -0.0078125 4.5 -0.65625 C 3.3125 -1.300781 2.382812 -2.207031 1.71875 -3.375 C 1.050781 -4.539062 0.71875 -5.890625 0.71875 -7.421875 C 0.71875 -8.953125 1.050781 -10.296875 1.71875 -11.453125 C 2.382812 -12.609375 3.304688 -13.515625 4.484375 -14.171875 C 5.660156 -14.828125 7.03125 -15.15625 8.59375 -15.15625 C 9.84375 -15.15625 10.988281 -14.9375 12.03125 -14.5 C 13.082031 -14.0625 13.972656 -13.445312 14.703125 -12.65625 C 15.429688 -11.863281 15.9375 -10.925781 16.21875 -9.84375 L 11.65625 -9.84375 C 11.375 -10.300781 10.96875 -10.664062 10.4375 -10.9375 C 9.90625 -11.207031 9.3125 -11.34375 8.65625 -11.34375 C 7.914062 -11.34375 7.265625 -11.175781 6.703125 -10.84375 C 6.148438 -10.507812 5.71875 -10.050781 5.40625 -9.46875 C 5.09375 -8.882812 4.9375 -8.203125 4.9375 -7.421875 C 4.9375 -6.671875 5.082031 -6 5.375 -5.40625 C 5.675781 -4.8125 6.101562 -4.34375 6.65625 -4 C 7.21875 -3.664062 7.894531 -3.5 8.6875 -3.5 C 9.539062 -3.5 10.253906 -3.691406 10.828125 -4.078125 C 11.398438 -4.472656 11.789062 -4.976562 12 -5.59375 L 7.90625 -5.59375 L 7.90625 -8.609375 L 16.5 -8.609375 C 16.613281 -7.304688 16.507812 -6.109375 16.1875 -5.015625 C 15.875 -3.929688 15.363281 -2.988281 14.65625 -2.1875 C 13.957031 -1.394531 13.097656 -0.78125 12.078125 -0.34375 C 11.066406 0.09375 9.925781 0.3125 8.65625 0.3125 Z M 8.65625 0.3125 "/></g></g></g><g fill="#000000" fill-opacity="1"><g transform="translate(185.489994, 43.355883)"><g><path d="M 1.5625 0 L 1.5625 -14.84375 L 11.75 -14.84375 L 11.75 -11.390625 L 5.8125 -11.390625 L 5.8125 -9.21875 L 11.171875 -9.21875 L 11.171875 -5.78125 L 5.8125 -5.78125 L 5.8125 -3.5 L 11.984375 -3.5 L 11.984375 0 Z M 1.5625 0 "/></g></g></g><g fill="#000000" fill-opacity="1"><g transform="translate(198.421104, 43.355883)"><g><path d="M 5.109375 0 L 5.109375 -10.875 L 0.59375 -10.875 L 0.59375 -14.84375 L 13.890625 -14.84375 L 13.890625 -10.875 L 9.375 -10.875 L 9.375 0 Z M 5.109375 0 "/></g></g></g><g fill="#000000" fill-opacity="1"><g transform="translate(212.899701, 43.355883)"><g><path d="M 10.4375 0 L 10.4375 -5.578125 L 5.859375 -5.578125 L 5.859375 0 L 1.5625 0 L 1.5625 -14.84375 L 5.859375 -14.84375 L 5.859375 -9.515625 L 10.4375 -9.515625 L 10.4375 -14.84375 L 14.71875 -14.84375 L 14.71875 0 Z M 10.4375 0 "/></g></g></g><g fill="#000000" fill-opacity="1"><g transform="translate(229.180178, 43.355883)"><g><path d="M 1.5625 0 L 1.5625 -14.84375 L 11.75 -14.84375 L 11.75 -11.390625 L 5.8125 -11.390625 L 5.8125 -9.21875 L 11.171875 -9.21875 L 11.171875 -5.78125 L 5.8125 -5.78125 L 5.8125 -3.5 L 11.984375 -3.5 L 11.984375 0 Z M 1.5625 0 "/></g></g></g><g fill="#000000" fill-opacity="1"><g transform="translate(242.111288, 43.355883)"><g><path d="M 1.5625 0 L 1.5625 -14.84375 L 8.328125 -14.84375 C 9.535156 -14.84375 10.570312 -14.625 11.4375 -14.1875 C 12.3125 -13.757812 12.984375 -13.148438 13.453125 -12.359375 C 13.921875 -11.566406 14.15625 -10.617188 14.15625 -9.515625 C 14.15625 -8.484375 13.941406 -7.582031 13.515625 -6.8125 C 13.097656 -6.039062 12.492188 -5.4375 11.703125 -5 L 14.4375 0 L 9.578125 0 L 7.46875 -4.21875 L 5.859375 -4.21875 L 5.859375 0 Z M 5.765625 -7.640625 L 7.765625 -7.640625 C 8.441406 -7.640625 8.957031 -7.800781 9.3125 -8.125 C 9.675781 -8.445312 9.859375 -8.90625 9.859375 -9.5 C 9.859375 -10.09375 9.675781 -10.546875 9.3125 -10.859375 C 8.957031 -11.179688 8.441406 -11.34375 7.765625 -11.34375 L 5.765625 -11.34375 Z M 5.765625 -7.640625 "/></g></g></g></svg>